<?xml version="1.0" encoding="iso-8859-1"?>
<!-- Generator: Adobe Illustrator 19.0.0, SVG Export Plug-In . SVG Version: 6.00 Build 0)  -->
<svg version="1.1" id="Capa_1" xmlns="http://www.w3.org/2000/svg" xmlns:xlink="http://www.w3.org/1999/xlink" x="0px" y="0px"
	 viewBox="0 0 512 512" style="enable-background:new 0 0 512 512;" xml:space="preserve">
<g>
	<g>
		<polygon points="219.619,150.117 141.464,197.464 190.211,246.21 264.604,195.102 		"/>
	</g>
</g>
<g>
	<g>
		<polygon points="286.355,216.854 211.961,267.961 244.015,300.015 295.122,225.62 		"/>
	</g>
</g>
<g>
	<g>
		<polygon points="186.608,285.379 125.189,327.572 120.168,391.808 184.404,386.786 226.597,325.367 		"/>
	</g>
</g>
<g>
	<g>
		<polygon points="308.727,96.135 246.254,133.981 289.958,177.685 349.424,136.833 		"/>
	</g>
</g>
<g>
	<g>
		<polygon points="114.829,213.599 0,283.164 27.377,310.54 105.455,304.435 164.857,263.627 		"/>
	</g>
</g>
<g>
	<g>
		<path d="M482.42,29.556c-39.376-39.375-103.444-39.376-142.821,0l-27.34,27.341l142.821,142.821l27.34-27.34
			c19.075-19.075,29.58-44.436,29.58-71.41C512,73.993,501.495,48.63,482.42,29.556z"/>
	</g>
</g>
<g>
	<g>
		<polygon points="375.143,162.552 334.29,222.018 377.994,265.722 415.841,203.249 		"/>
	</g>
</g>
<g>
	<g>
		<polygon points="316.873,247.372 265.765,321.765 314.512,370.511 361.859,292.357 		"/>
	</g>
</g>
<g>
	<g>
		<polygon points="248.348,347.119 207.539,406.521 201.435,484.599 228.812,511.976 298.376,397.146 		"/>
	</g>
</g>
<g>
</g>
<g>
</g>
<g>
</g>
<g>
</g>
<g>
</g>
<g>
</g>
<g>
</g>
<g>
</g>
<g>
</g>
<g>
</g>
<g>
</g>
<g>
</g>
<g>
</g>
<g>
</g>
<g>
</g>
</svg>
