<?xml version="1.0" encoding="iso-8859-1"?>
<!-- Generator: Adobe Illustrator 19.0.0, SVG Export Plug-In . SVG Version: 6.00 Build 0)  -->
<svg version="1.1" id="Capa_1" xmlns="http://www.w3.org/2000/svg" xmlns:xlink="http://www.w3.org/1999/xlink" x="0px" y="0px"
	 viewBox="0 0 511.96 511.96" style="enable-background:new 0 0 511.96 511.96;" xml:space="preserve">
<path style="fill:#F4900C;" d="M302.66,224.78c-45.1,16.7-148,14.6-197.4,12.1s-81.6-8.2-91.3,5.9c-29.9,43.4-8.7,92.2,34.5,98.8
	c33.8,5.2,135.7-4.6,183.5-8.8c47.7-4.2,99.9-18.5,117.8-25.4s32.4-12.5,36.9-23.4s26.7-40.1,53.8-84.2
	c15.3-24.9,57.3-71.2,71.5-93.3v-70.9c-14.2,18.4-43.1,54.1-62.4,80.7C395.26,190.48,347.76,207.98,302.66,224.78z"/>
<path style="fill:#292F33;" d="M99.56,342.589c42.7-1.6,100.3-6.9,132.4-9.8c32.6-2.9,66.9-10.4,91.3-17.1l-6-96.5
	c-4.9,1.9-9.8,3.7-14.6,5.5c-45.1,16.8-148,14.6-197.4,12.1c-2-0.1-5.7-0.2-5.7-0.3C99.56,236.489,99.56,342.589,99.56,342.589z"/>
<path style="fill:#231F20;" d="M241.76,391.08v56.9c0,15.7,44.6,28.4,99.6,28.4s99.6-12.7,99.6-28.4v-56.9H241.76z"/>
<path style="fill:#58595B;" d="M440.756,391.08c0,15.7-44.6,28.4-99.6,28.4s-99.6-12.7-99.6-28.4c0-15.7,44.6-28.4,99.6-28.4
	C396.256,362.68,440.756,375.38,440.756,391.08"/>
<g>
</g>
<g>
</g>
<g>
</g>
<g>
</g>
<g>
</g>
<g>
</g>
<g>
</g>
<g>
</g>
<g>
</g>
<g>
</g>
<g>
</g>
<g>
</g>
<g>
</g>
<g>
</g>
<g>
</g>
</svg>
