<?xml version="1.0" encoding="iso-8859-1"?>
<!-- Generator: Adobe Illustrator 19.0.0, SVG Export Plug-In . SVG Version: 6.00 Build 0)  -->
<svg version="1.1" id="Capa_1" xmlns="http://www.w3.org/2000/svg" xmlns:xlink="http://www.w3.org/1999/xlink" x="0px" y="0px"
	 viewBox="0 0 512 512" style="enable-background:new 0 0 512 512;" xml:space="preserve">
<circle style="fill:#F2F6FC;" cx="256" cy="255.981" r="255.96"/>
<path style="fill:#4AB8F7;" d="M477.699,127.985C433.439,51.491,350.733,0.023,256,0.023S78.561,51.491,34.301,127.985L256,255.983
	L477.699,127.985z"/>
<path style="fill:#2864F0;" d="M256,0.023c-94.733,0-177.439,51.468-221.699,127.963l51.445,29.702L336.473,12.931
	C311.168,4.556,284.114,0.023,256,0.023z"/>
<path style="fill:#4A7AFF;" d="M336.473,12.931L85.747,157.688l85.127,49.148L422.485,61.568
	C397.521,40.168,368.389,23.493,336.473,12.931z"/>
<path style="fill:#B5EFFF;" d="M256,511.979c88.376-0.083,174.302-45.975,221.668-128.016s44.147-179.401,0.031-255.978L256,255.983
	V511.979z"/>
<path style="fill:#19CFFC;" d="M477.668,383.964c47.366-82.041,44.147-179.401,0.031-255.978l-51.445,29.702v289.513
	C446.158,429.474,463.611,408.311,477.668,383.964z"/>
<path style="fill:#96E8FF;" d="M426.253,447.201V157.688l-85.127,49.148v290.535C372.141,486.452,401.148,469.56,426.253,447.201z"
	/>
<path style="fill:#19CFFC;" d="M34.301,127.986c-44.116,76.578-47.336,173.937,0.031,255.978S167.624,511.896,256,511.979V255.983
	L34.301,127.986z"/>
<path style="fill:#4A7AFF;" d="M34.332,383.964C81.698,466.004,167.624,511.896,256,511.979v-59.404L5.274,307.818
	C10.673,333.92,20.275,359.616,34.332,383.964z"/>
<path style="fill:#4AB8F7;" d="M5.274,307.818L256,452.575v-98.296L4.389,209.011C-1.662,241.33-1.537,274.897,5.274,307.818z"/>
<g>
</g>
<g>
</g>
<g>
</g>
<g>
</g>
<g>
</g>
<g>
</g>
<g>
</g>
<g>
</g>
<g>
</g>
<g>
</g>
<g>
</g>
<g>
</g>
<g>
</g>
<g>
</g>
<g>
</g>
</svg>
