<svg id="Capa_1" enable-background="new 0 0 512 512" height="512" viewBox="0 0 512 512" width="512" xmlns="http://www.w3.org/2000/svg"><g><path d="m256 369.5h102.503v60h-102.503z" fill="#d49551"/><path d="m153.503 369.5h175v60h-175z" fill="#e0ac5e"/><circle cx="256" cy="196" fill="#ffecb5" r="188.5"/><circle cx="256" cy="196" fill="#fff6db" r="158.5"/><path d="m358.503 354.5h-30v30h30c8.284 0 15-6.716 15-15s-6.716-15-15-15z" fill="#e0ac5e"/><path d="m343.503 369.5c0-8.284-6.716-15-15-15h-175c-8.284 0-15 6.716-15 15s6.716 15 15 15h175c8.284 0 15-6.716 15-15z" fill="#f5c476"/><path d="m358.503 414.5h-30v30h30c8.284 0 15-6.716 15-15s-6.716-15-15-15z" fill="#e0ac5e"/><path d="m343.503 429.5c0-8.284-6.716-15-15-15h-175c-8.284 0-15 6.716-15 15s6.716 15 15 15h175c8.284 0 15-6.716 15-15z" fill="#f5c476"/><path d="m358.503 444.5h-30l60 60h30c0-33.137-26.863-60-60-60z" fill="#6b5675"/><path d="m328.503 444.5h-175c-33.137 0-60 26.863-60 60h295c0-33.137-26.863-60-60-60z" fill="#81658f"/><path d="m378.396 439.995c1.661-3.136 2.606-6.706 2.606-10.495 0-9.777-6.271-18.114-15-21.21v-17.58c8.729-3.096 15-11.432 15-21.21 0-6.613-2.869-12.568-7.426-16.688 49.346-36.971 78.424-94.604 78.424-156.812 0-108.075-87.925-196-196-196s-196 87.925-196 196c0 62.209 29.079 119.843 78.426 156.815-4.555 4.12-7.423 10.074-7.423 16.685 0 9.777 6.271 18.114 15 21.21v17.575c-8.73 3.095-15 11.437-15 21.215 0 3.789.945 7.359 2.606 10.495-27.54 8.511-47.606 34.207-47.606 64.505 0 4.142 3.357 7.5 7.5 7.5h325c4.143 0 7.5-3.358 7.5-7.5 0-30.298-20.067-55.994-47.607-64.505zm-19.893-62.995h-205c-4.136 0-7.5-3.364-7.5-7.5s3.364-7.5 7.5-7.5h205c4.136 0 7.5 3.364 7.5 7.5s-3.364 7.5-7.5 7.5zm-283.503-181c0-99.804 81.196-181 181-181s181 81.196 181 181c0 61.045-30.325 117.318-81.211 151h-199.578c-50.886-33.682-81.211-89.955-81.211-151zm71.003 233.5c0-4.136 3.364-7.5 7.5-7.5 4.143 0 7.5-3.358 7.5-7.5v-22.5h190v15h-167.5c-4.143 0-7.5 3.358-7.5 7.5s3.357 7.5 7.5 7.5h175c4.136 0 7.5 3.364 7.5 7.5s-3.364 7.5-7.5 7.5h-205c-4.136 0-7.5-3.364-7.5-7.5zm-44.466 67.5c3.65-25.409 25.563-45 51.966-45h205c26.402 0 48.315 19.591 51.966 45z"/></g></svg>